<svg xmlns="http://www.w3.org/2000/svg" width="168" height="37" viewBox="0 0 168 37">
    <g fill="#FFF" fill-rule="evenodd">
        <g>
            <path d="M0 0H78V14H0zM0 22H78V36H0z" transform="translate(90 1)"/>
        </g>
        <path d="M23.941 36.952h-.125c-1.65 0-3.163-.916-3.927-2.38L6.977 9.916v27.037H0V.263h7.102c1.65 0 3.162.915 3.927 2.376L23.94 27.297V.263h6.974v36.689h-6.974zM47.202.406h-5.856l-1.938 3.852h6.975v29.31H43.89V6.76h-5.74l-1.706 3.4h3.795V37h9.791V3.211c-.003-.747-.302-1.462-.833-1.988-.53-.527-1.248-.82-1.995-.817zm33.67 33.19H58.907l11.637-17.26c.009-.01.015-.016.02-.025.617-.817 1.046-1.76 1.258-2.763l.009-.045c.065-.354.097-.713.096-1.073.007-1.65-.66-3.233-1.846-4.382-2.487-2.39-6.417-2.39-8.904 0-1.186 1.149-1.853 2.731-1.846 4.382h3.793c-.006-1.057.66-2.001 1.656-2.352.997-.35 2.107-.03 2.765.797.657.827.718 1.98.151 2.873-.011.02-15.63 23.252-15.63 23.252H82.46l-1.588-3.403zM53.094 12.43h3.844c-.007-2.297.91-4.501 2.546-6.115 3.404-3.368 8.886-3.368 12.29 0 2.906 2.871 3.381 7.395 1.135 10.807l-9.321 14.01h16.133l-1.676-3.59h-7.64s4.089-5.859 5.517-8.226c1.429-2.367 2.063-4.527 2.114-6.903.009-.823-.073-1.645-.244-2.45-1.289-6.261-7.1-10.536-13.461-9.9C57.97.697 53.119 6.037 53.095 12.43z"/>
    </g>
</svg>
