<svg xmlns="http://www.w3.org/2000/svg" width="28" height="28" viewBox="0 0 28 28">
    <g fill="#FFF" fill-rule="evenodd">
        <path d="M8.027 15.833L16.194 15.833 16.194 17.816 8.027 17.816z" transform="scale(1 -1) rotate(-30 -50.68 0)"/>
        <path fill-rule="nonzero" d="M7 17.092c-1.707 0-3.092-1.385-3.092-3.092S5.293 10.908 7 10.908s3.092 1.385 3.092 3.092S8.707 17.092 7 17.092zm-.058-1.634c.837 0 1.516-.679 1.516-1.516 0-.838-.679-1.517-1.516-1.517-.838 0-1.517.679-1.517 1.517 0 .837.679 1.516 1.517 1.516zM17.5 22.925c-1.707 0-3.092-1.384-3.092-3.092 0-1.707 1.385-3.091 3.092-3.091s3.092 1.384 3.092 3.091c0 1.708-1.385 3.092-3.092 3.092zm-.058-1.633c.837 0 1.516-.68 1.516-1.517 0-.838-.679-1.517-1.516-1.517-.838 0-1.517.68-1.517 1.517 0 .838.679 1.517 1.517 1.517z"/>
        <path d="M8.027 10.65L16.194 10.65 16.194 12.634 8.027 12.634z" transform="rotate(-30 12.11 11.642)"/>
        <path fill-rule="nonzero" d="M17.5 5.075c-1.707 0-3.092 1.384-3.092 3.092 0 1.707 1.385 3.091 3.092 3.091s3.092-1.384 3.092-3.091c0-1.708-1.385-3.092-3.092-3.092zm-.058 1.633c.837 0 1.516.68 1.516 1.517 0 .838-.679 1.517-1.516 1.517-.838 0-1.517-.68-1.517-1.517 0-.838.679-1.517 1.517-1.517z"/>
    </g>
</svg>
