<svg xmlns="http://www.w3.org/2000/svg" width="26" height="26" viewBox="0 0 26 26">
    <path fill="#FFF" fill-rule="evenodd" d="M12.624.74c3.35 0 6.492 1.312 8.856 3.691 2.364 2.38 3.664 5.543 3.663 8.906-.003 6.94-5.62 12.587-12.518 12.587-2.1-.001-4.16-.53-5.989-1.532L0 26.143l1.776-6.524C.681 17.711.105 15.545.106 13.326.108 6.386 5.724.74 12.624.74zm-4.8 7.006c-.222 0-.58.078-.885.386-.304.308-1.161 1.054-1.161 2.57 0 1.514 1.189 2.979 1.354 3.184.166.205 2.339 3.315 5.666 4.649.791.318 1.41.508 1.892.65.793.234 1.517.2 2.088.12.638-.088 1.963-.743 2.24-1.463.276-.72.276-1.336.193-1.464-.083-.128-.304-.205-.636-.36-.331-.153-1.962-.899-2.266-1.001-.304-.104-.526-.155-.746.153-.222.309-.857 1.003-1.05 1.208-.194.204-.387.231-.72.076-.331-.153-1.4-.478-2.667-1.527-.985-.817-1.652-1.825-1.846-2.134-.193-.308-.02-.475.146-.628.15-.137.332-.36.499-.54.165-.18.22-.308.33-.512.11-.207.056-.386-.027-.54-.083-.155-.747-1.671-1.022-2.287-.27-.6-.544-.519-.747-.528-.193-.01-.415-.012-.635-.012z"/>
</svg>
